<svg width="29" height="24" viewBox="0 0 29 24" fill="none" xmlns="http://www.w3.org/2000/svg">
<path fill-rule="evenodd" clip-rule="evenodd" d="M16.7469 10.6179C17.7916 10.5963 18.7247 10.0491 19.132 9.21925C19.219 9.25087 19.312 9.2683 19.4063 9.27067H24.1765C24.6705 9.27067 25.0709 8.92534 25.0709 8.49935C25.0709 8.07336 24.6705 7.72802 24.1765 7.72802H19.466C19.4145 7.72221 19.3624 7.72221 19.3109 7.72802C18.9693 6.57063 17.655 5.83303 16.2895 6.0325C14.9241 6.23197 13.9648 7.30174 14.0842 8.49158C14.2037 9.68142 15.3621 10.593 16.7469 10.5871V10.6179ZM16.7469 7.58404C17.2277 7.58404 17.6175 7.92017 17.6175 8.3348C17.6175 8.74943 17.2277 9.08556 16.7469 9.08556C16.2662 9.08556 15.8764 8.74943 15.8764 8.3348C15.8764 7.92017 16.2662 7.58404 16.7469 7.58404ZM5.1554 7.72802H12.3107C12.8046 7.72802 13.2051 8.07336 13.2051 8.49935C13.2051 8.92534 12.8046 9.27067 12.3107 9.27067H5.1554C4.66143 9.27067 4.26099 8.92534 4.26099 8.49935C4.26099 8.07336 4.66143 7.72802 5.1554 7.72802ZM7.43316 15.9555C7.8067 15.0444 8.80497 14.4347 9.92558 14.4334V14.4128C11.2741 14.4114 12.4105 15.2806 12.5697 16.4354C12.729 17.5902 11.8607 18.6651 10.5494 18.9364C9.23804 19.2077 7.8988 18.5896 7.43316 17.4981H5.1554C4.66143 17.4981 4.26099 17.1528 4.26099 16.7268C4.26099 16.3008 4.66143 15.9555 5.1554 15.9555H7.43316ZM9.05646 16.7809C9.06466 17.19 9.45116 17.5181 9.92558 17.5187V17.4776C10.4064 17.4776 10.7961 17.1414 10.7961 16.7268C10.7701 16.3183 10.3696 16.0029 9.89552 16.0177C9.4214 16.0324 9.04827 16.3718 9.05646 16.7809ZM14.6958 15.9555H24.2361C24.7301 15.9555 25.1306 16.3008 25.1306 16.7268C25.1306 17.1528 24.7301 17.4981 24.2361 17.4981H14.6958C14.2018 17.4981 13.8014 17.1528 13.8014 16.7268C13.8014 16.3008 14.2018 15.9555 14.6958 15.9555Z" fill="white"/>
</svg>
