<svg width="25" height="24" viewBox="0 0 25 24" fill="none" xmlns="http://www.w3.org/2000/svg">
<path fill-rule="evenodd" clip-rule="evenodd" d="M15.3542 13.27L21.0842 19L19.5942 20.49L13.8642 14.76C12.7942 15.53 11.5042 16 10.0942 16C6.50424 16 3.59424 13.09 3.59424 9.5C3.59424 5.91 6.50424 3 10.0942 3C13.6842 3 16.5942 5.91 16.5942 9.5C16.5942 10.91 16.1242 12.2 15.3542 13.27ZM10.0942 5C7.60424 5 5.59424 7.01 5.59424 9.5C5.59424 11.99 7.60424 14 10.0942 14C12.5842 14 14.5942 11.99 14.5942 9.5C14.5942 7.01 12.5842 5 10.0942 5Z" fill="white"/>
</svg>
