<?xml version="1.0" standalone="no"?>
<!DOCTYPE svg PUBLIC "-//W3C//DTD SVG 20010904//EN"
 "http://www.w3.org/TR/2001/REC-SVG-20010904/DTD/svg10.dtd">
<svg version="1.0" xmlns="http://www.w3.org/2000/svg"
 width="812.000000pt" height="812.000000pt" viewBox="0 0 812.000000 812.000000"
 preserveAspectRatio="xMidYMid meet">
<metadata>
Created by potrace 1.14, written by Peter Selinger 2001-2017
</metadata>
<g transform="translate(0.000000,812.000000) scale(0.100000,-0.100000)"
fill="#000000" stroke="none">
<path d="M5108 7955 c-2 -2 -16 -6 -33 -8 -59 -11 -101 -27 -145 -57 -25 -16
-409 -393 -854 -837 -747 -746 -809 -811 -812 -844 -2 -35 14 -52 914 -952
505 -504 928 -920 942 -925 15 -6 35 -6 49 -1 13 5 435 420 938 922 803 803
914 917 918 948 4 33 -8 46 -823 860 -872 871 -865 865 -972 884 -41 7 -118
13 -122 10z"/>
<path d="M2942 5914 c-24 -11 -1619 -1610 -1649 -1655 -26 -38 -41 -70 -49
-101 -1 -5 -2 -9 -4 -10 -6 -9 -11 -52 -11 -113 -1 -75 15 -130 57 -202 28
-49 1637 -1659 1666 -1669 11 -3 30 -3 44 0 14 4 403 385 945 926 l922 920 -6
36 c-5 32 -117 146 -921 951 -786 785 -920 915 -948 918 -18 3 -39 2 -46 -1z"/>
<path d="M5115 3789 c-11 -4 -227 -215 -480 -468 -253 -254 -460 -461 -460
-461 -10 0 -902 -906 -908 -922 -4 -12 -6 -32 -3 -44 6 -22 1594 -1614 1655
-1659 57 -41 138 -66 216 -67 99 -1 168 21 250 78 51 36 1634 1630 1640 1651
3 13 -1 36 -9 51 -25 47 -1821 1832 -1853 1841 -15 5 -37 5 -48 0z"/>
</g>
</svg>
