<svg width="150" height="203" viewBox="0 0 150 203" fill="none" xmlns="http://www.w3.org/2000/svg">
<path d="M55.6103 49.263C54.8288 48.4824 54.8288 47.2168 55.6103 46.4362L95.0227 7.06718C98.9301 3.16409 105.265 3.1641 109.173 7.06719L148.585 46.4362C149.366 47.2168 149.366 48.4824 148.585 49.263L103.513 94.2858C102.731 95.0664 101.464 95.0664 100.683 94.2858L55.6103 49.263Z" fill="#536F83"/>
<path d="M7.07496 109.052C3.16757 105.148 3.16757 98.8203 7.07496 94.9172L46.4873 55.5482C47.2688 54.7676 48.5359 54.7676 49.3173 55.5482L94.3897 100.571C95.1712 101.352 95.1712 102.617 94.3897 103.398L49.3173 148.421C48.5359 149.201 47.2688 149.201 46.4873 148.421L7.07496 109.052Z" fill="#7E99AD"/>
<path d="M55.6103 156.564C54.8288 155.783 54.8288 154.518 55.6103 153.737L100.683 108.714C101.464 107.934 102.731 107.934 103.513 108.714L148.585 153.737C149.366 154.518 149.366 155.783 148.585 156.564L109.173 195.933C105.265 199.836 98.9301 199.836 95.0227 195.933L55.6103 156.564Z" fill="#98ADBD"/>
</svg>
