<svg width="471" height="131" viewBox="0 0 471 131" fill="none" xmlns="http://www.w3.org/2000/svg">
<path d="M67.8125 48.5625H31.5V35.875H73.5V15.75H8.1875V100H75.5V79.875H31.5V65.8125H67.8125V48.5625ZM113.31 101.25C123.122 101.25 130.622 99.1875 135.747 95.125C140.81 91.0625 143.372 85.8125 143.372 79.375C143.372 73 140.685 68.25 135.31 65.1875C131.997 63.5 127.06 62.125 120.497 61.1875C113.31 60.125 109.372 59.4375 108.81 59.1875C107.185 58.75 106.372 57.8125 106.372 56.25C106.435 53.25 109.497 51.75 115.622 51.75C122.935 51.6875 129.685 53.125 135.81 55.9375L140.185 40.375C133.497 37.125 125.06 35.5 114.872 35.5C105.435 35.5 98.2475 37.375 93.185 41.125C88.1225 44.875 85.56 49.875 85.56 56.125C85.56 61.9375 87.6225 66.3125 91.685 69.125C95.1225 71.3125 100.497 73 107.81 74.125C115.372 75.1875 119.372 75.75 119.685 75.9375C121.56 76.5 122.497 77.75 122.497 79.625C122.497 82.6875 119.06 85 111.747 85C104.31 85.0625 96.935 83.4375 89.6225 80.1875L85.3725 96.3125C87.935 97.375 91.8725 98.5 97.06 99.5625C102.247 100.688 107.685 101.25 113.31 101.25ZM197.182 36.75H179.37V21H169.37L157.745 36.75H148.12V54.3125H157.995V79.125C157.995 93.3125 165.682 101.25 180.682 101.25C187.12 101.25 192.37 100.375 196.432 98.5625L194.87 82.4375C192.057 83.3125 189.37 83.75 186.932 83.75C181.87 83.75 179.37 81.5 179.37 75.3125V54.3125H197.182V36.75ZM230.492 36.75H208.992V100H230.492V36.75ZM210.492 24.4375C212.617 26.375 215.68 27.3125 219.742 27.3125C223.742 27.3125 226.805 26.3125 228.992 24.375C231.18 22.4375 232.242 19.875 232.242 16.8125C232.242 13.75 231.18 11.1875 228.992 9.25C226.805 7.3125 223.742 6.3125 219.742 6.3125C215.68 6.3125 212.617 7.25 210.492 9.1875C208.367 11.125 207.305 13.625 207.305 16.8125C207.305 20 208.367 22.5 210.492 24.4375ZM268.678 100V59.1875C271.553 55.5 275.365 53.6875 280.178 53.6875C285.115 53.6875 287.615 56.4375 287.615 61.875V100H308.99V59.1875C312.053 55.5 315.865 53.6875 320.49 53.6875C325.428 53.6875 327.928 56.4375 327.928 61.875V100H349.303V57.125C349.303 42.8125 341.49 35.5 327.678 35.5C318.428 35.5 311.74 39.1875 307.678 46.625H307.178C304.24 39.1875 297.615 35.5 287.365 35.5C278.178 35.5 271.615 39.0625 267.615 46.25H267.115L262.74 36.75H247.178V100H268.678ZM387.237 36.75H365.737V100H387.237V36.75ZM367.237 24.4375C369.362 26.375 372.425 27.3125 376.487 27.3125C380.487 27.3125 383.55 26.3125 385.737 24.375C387.925 22.4375 388.987 19.875 388.987 16.8125C388.987 13.75 387.925 11.1875 385.737 9.25C383.55 7.3125 380.487 6.3125 376.487 6.3125C372.425 6.3125 369.362 7.25 367.237 9.1875C365.112 11.125 364.05 13.625 364.05 16.8125C364.05 20 365.112 22.5 367.237 24.4375ZM425.422 61.0625C428.922 56.125 433.61 53.625 439.485 53.6875C445.797 53.6875 448.985 56.6875 448.985 62.75V100H470.36V57C470.36 43.6875 461.985 35.5 446.672 35.5C435.735 35.5 428.297 39.1875 424.485 46.5H423.86L419.485 36.75H403.922V100H425.422V61.0625Z" fill="#435969"/>
</svg>
